Coordinates
version=1
nRows=16
nColumns=22
inDegrees=yes

Units are S.I. units (second, meters, Newtons, ...)
If the header above contains a line with 'inDegrees', this indicates whether rotational values are in degrees (yes) or radians (no).

endheader
time	pelvis_tilt	pelvis_list	pelvis_rotation	pelvis_tx	pelvis_ty	pelvis_tz	hip_flexion_r	hip_adduction_r	hip_rotation_r	knee_angle_r	ankle_angle_r	subtalar_angle_r	hip_flexion_l	hip_adduction_l	hip_rotation_l	knee_angle_l	ankle_angle_l	subtalar_angle_l	lumbar_extension	lumbar_bending	lumbar_rotation
      0.01000000	     -0.88197494	     -2.77120360	     -6.23973157	      0.13930129	      0.93230153	      1.13523447	     -1.60053203	      3.79397095	      3.23000868	     -5.56497955	      3.39384046	      0.96215623	     -1.37876139	     -3.12791876	    -11.04879649	     -9.44902379	      9.11491514	     -2.60981743	     -2.77411865	     -0.96291829	      1.85732535
      0.02000000	     -0.87706260	     -2.76962290	     -6.23282307	      0.13932731	      0.93229849	      1.13519226	     -1.60447494	      3.79004616	      3.23176193	     -5.57116377	      3.39187653	      0.96206417	     -1.38360290	     -3.12379228	    -11.04657255	     -9.45077247	      9.11916456	     -2.61049304	     -2.76325146	     -0.95675112	      1.86070819
      0.03000000	     -0.87128366	     -2.76759116	     -6.22602247	      0.13934703	      0.93229642	      1.13514474	     -1.60911440	      3.78502945	      3.23382202	     -5.57743366	      3.39108274	      0.96204875	     -1.38868553	     -3.11896016	    -11.04372562	     -9.45252093	      9.12394281	     -2.61137674	     -2.75197450	     -0.94998890	      1.86496216
      0.04000000	     -0.86476546	     -2.76525656	     -6.21880729	      0.13936412	      0.93229430	      1.13509310	     -1.61392067	      3.77944727	      3.23595342	     -5.58362265	      3.39144430	      0.96209217	     -1.39441904	     -3.11342452	    -11.04069169	     -9.45464206	      9.12867805	     -2.61237981	     -2.74015822	     -0.94243022	      1.87037069
      0.05000000	     -0.85238519	     -2.75535605	     -6.21895285	      0.13937617	      0.93229314	      1.13504463	     -1.62241562	      3.76423740	      3.23247219	     -5.59163704	      3.41047722	      0.96437673	     -1.41511388	     -3.09546616	    -11.01131491	     -9.44057580	      9.17177671	     -2.62526495	     -2.73490269	     -0.94512237	      1.90819718
      0.06000000	     -0.84559996	     -2.75381646	     -6.21118513	      0.13938179	      0.93229429	      1.13499330	     -1.62676175	      3.75962285	      3.23453623	     -5.59789125	      3.41131446	      0.96438172	     -1.42024779	     -3.09124826	    -11.01168256	     -9.44303959	      9.17202582	     -2.62641684	     -2.72356176	     -0.93617826	      1.91093841
      0.07000000	     -0.83914314	     -2.75226109	     -6.20441945	      0.13937836	      0.93229622	      1.13493862	     -1.63057250	      3.75450267	      3.23500617	     -5.60326001	      3.41277034	      0.96440218	     -1.42457094	     -3.08654828	    -11.01143130	     -9.44479148	      9.17274810	     -2.62771944	     -2.71369519	     -0.92579505	      1.91642579
      0.08000000	     -0.82541739	     -2.75295067	     -6.20723640	      0.13938142	      0.93230771	      1.13490474	     -1.63497269	      3.75176369	      3.21391141	     -5.62385654	      3.43799333	      0.96651129	     -1.44866043	     -3.08162562	    -11.00528381	     -9.42805275	      9.18576459	     -2.65024045	     -2.71151514	     -0.91791238	      1.95966667
      0.09000000	     -0.82049109	     -2.75113068	     -6.20197769	      0.13935731	      0.93231120	      1.13484297	     -1.63623916	      3.74579218	      3.21402837	     -5.62661328	      3.43823272	      0.96637850	     -1.45042420	     -3.07583684	    -11.00558584	     -9.42924297	      9.18583943	     -2.65121948	     -2.70607279	     -0.90504355	      1.96415742
      0.10000000	     -0.81573122	     -2.74994679	     -6.19614939	      0.13933606	      0.93231531	      1.13478478	     -1.63760882	      3.74054944	      3.21257598	     -5.62983949	      3.43843984	      0.96624909	     -1.45255866	     -3.07139954	    -11.00552492	     -9.42982368	      9.18620993	     -2.65237301	     -2.69989083	     -0.89324265	      1.97177175
      0.11000000	     -0.81125722	     -2.75423391	     -6.19895550	      0.13931731	      0.93232101	      1.13474286	     -1.63531141	      3.74221602	      3.18521516	     -5.63987130	      3.44167168	      0.96628969	     -1.46194578	     -3.07150352	    -10.99964602	     -9.41915495	      9.19134619	     -2.66348519	     -2.69453651	     -0.87836739	      2.02037082
      0.12000000	     -0.80715784	     -2.75290702	     -6.19212891	      0.13929158	      0.93232462	      1.13468231	     -1.63519777	      3.73716979	      3.18596377	     -5.64395001	      3.44133183	      0.96611027	     -1.46376846	     -3.06672868	    -11.00070023	     -9.41840776	      9.19186765	     -2.66443634	     -2.69037989	     -0.86696666	      2.02419593
      0.13000000	     -0.80338891	     -2.75173869	     -6.18538271	      0.13926540	      0.93232923	      1.13461957	     -1.63484260	      3.73209789	      3.18572132	     -5.64793830	      3.44107670	      0.96592504	     -1.46560989	     -3.06180363	    -11.00124552	     -9.41691092	      9.19252663	     -2.66543484	     -2.68669810	     -0.85497781	      2.03003648
      0.14000000	     -0.79961887	     -2.75050945	     -6.17841837	      0.13924244	      0.93233260	      1.13455275	     -1.63458026	      3.72706078	      3.18511019	     -5.65246299	      3.44100182	      0.96574130	     -1.46769570	     -3.05666274	    -11.00131246	     -9.41450521	      9.19331861	     -2.66652045	     -2.68315119	     -0.84275419	      2.03718644
      0.15000000	     -0.79577328	     -2.74913938	     -6.17106245	      0.13922106	      0.93233390	      1.13448582	     -1.63425650	      3.72184542	      3.18483802	     -5.65753358	      3.44124815	      0.96556607	     -1.47052399	     -3.05123712	    -11.00096701	     -9.41141294	      9.19416392	     -2.66763076	     -2.67970554	     -0.83070918	      2.04457588
      0.16000000	     -0.79161824	     -2.74740967	     -6.16336458	      0.13920153	      0.93233372	      1.13441793	     -1.63405854	      3.71636120	      3.18540063	     -5.66330045	      3.44194269	      0.96540064	     -1.47397513	     -3.04535921	    -11.00024562	     -9.40749315	      9.19499909	     -2.66873953	     -2.67642510	     -0.81898183	      2.05143453
